<svg xmlns="http://www.w3.org/2000/svg" xmlns:xlink="http://www.w3.org/1999/xlink" width="200" zoomAndPan="magnify" viewBox="0 0 150 74.999997" height="100" preserveAspectRatio="xMidYMid meet" version="1.0"><defs><g/><clipPath id="505184b633"><path d="M 19 38 L 39 38 L 39 50.953125 L 19 50.953125 Z M 19 38 " clip-rule="nonzero"/></clipPath><clipPath id="243f525cda"><path d="M 13.199219 32.066406 L 20 32.066406 L 20 39 L 13.199219 39 Z M 13.199219 32.066406 " clip-rule="nonzero"/></clipPath><clipPath id="8da0e40f14"><path d="M 38 32.066406 L 57.941406 32.066406 L 57.941406 50.953125 L 38 50.953125 Z M 38 32.066406 " clip-rule="nonzero"/></clipPath><clipPath id="a2732ca998"><path d="M 32 25 L 52 25 L 52 38.433594 L 32 38.433594 Z M 32 25 " clip-rule="nonzero"/></clipPath><clipPath id="07eb9f349e"><path d="M 51 19.542969 L 57.941406 19.542969 L 57.941406 26 L 51 26 Z M 51 19.542969 " clip-rule="nonzero"/></clipPath><clipPath id="9ceec1ad18"><path d="M 13.238281 19.542969 L 33 19.542969 L 33 38.433594 L 13.238281 38.433594 Z M 13.238281 19.542969 " clip-rule="nonzero"/></clipPath></defs><g fill="#000000" fill-opacity="1"><g transform="translate(69.736665, 32.925995)"><g><path d="M 3.867188 -8.535156 C 0.707031 -8.535156 0.695312 -5.871094 0.695312 -5.871094 L 0.695312 -2.554688 C 0.695312 -2.554688 0.707031 -0.292969 3.171875 0.0546875 L 3.839844 1.429688 C 3.90625 1.578125 4.054688 1.671875 4.160156 1.671875 L 5.402344 1.671875 C 5.511719 1.671875 5.644531 1.59375 5.644531 1.429688 L 4.9375 -0.0117188 C 7.023438 -0.535156 7.035156 -2.554688 7.035156 -2.554688 L 7.035156 -5.871094 C 7.035156 -5.871094 7.023438 -8.535156 3.867188 -8.535156 Z M 3.867188 -1.472656 C 3.4375 -1.472656 2.421875 -1.605469 2.421875 -2.929688 L 2.421875 -5.496094 C 2.421875 -6.820312 3.4375 -6.957031 3.867188 -6.957031 C 4.292969 -6.957031 5.3125 -6.820312 5.3125 -5.496094 L 5.3125 -2.929688 C 5.3125 -1.605469 4.292969 -1.472656 3.867188 -1.472656 Z M 3.867188 -1.472656 "/></g></g></g><g fill="#000000" fill-opacity="1"><g transform="translate(78.871372, 32.925995)"><g><path d="M 4.027344 0.105469 C 6.609375 0.105469 7.222656 -1.511719 7.222656 -2.941406 L 7.222656 -8.1875 C 7.222656 -8.347656 7.089844 -8.425781 6.984375 -8.425781 L 5.738281 -8.425781 C 5.632812 -8.425781 5.496094 -8.347656 5.496094 -8.1875 L 5.496094 -2.929688 C 5.496094 -1.605469 4.453125 -1.472656 4.027344 -1.472656 C 3.597656 -1.472656 2.554688 -1.605469 2.554688 -2.929688 L 2.554688 -8.1875 C 2.554688 -8.347656 2.421875 -8.425781 2.3125 -8.425781 L 1.070312 -8.425781 C 0.964844 -8.425781 0.828125 -8.347656 0.828125 -8.1875 L 0.828125 -2.941406 C 0.828125 -1.511719 1.445312 0.105469 4.027344 0.105469 Z M 4.027344 0.105469 "/></g></g></g><g fill="#000000" fill-opacity="1"><g transform="translate(88.327042, 32.925995)"><g><path d="M 3.050781 -8.425781 C 2.96875 -8.425781 2.863281 -8.375 2.824219 -8.265625 L 0.359375 -0.242188 C 0.359375 -0.0820312 0.496094 0 0.601562 0 L 1.820312 0 C 1.925781 0 2.035156 -0.0820312 2.085938 -0.242188 L 2.394531 -1.285156 L 5.484375 -1.285156 L 5.804688 -0.242188 C 5.859375 -0.0820312 5.964844 0 6.074219 0 L 7.289062 0 C 7.398438 0 7.53125 -0.0820312 7.53125 -0.242188 L 5.070312 -8.265625 C 5.03125 -8.375 4.921875 -8.425781 4.84375 -8.425781 Z M 3.945312 -6.339844 L 5.003906 -2.863281 L 2.875 -2.863281 Z M 3.945312 -6.339844 "/></g></g></g><g fill="#000000" fill-opacity="1"><g transform="translate(97.622228, 32.925995)"><g><path d="M 5.632812 -0.242188 C 5.710938 -0.105469 5.859375 0 5.964844 0 L 7.183594 0 C 7.289062 0 7.425781 -0.0820312 7.425781 -0.242188 L 7.425781 -8.1875 C 7.425781 -8.347656 7.289062 -8.425781 7.183594 -8.425781 L 5.9375 -8.425781 C 5.832031 -8.425781 5.699219 -8.347656 5.699219 -8.1875 L 5.699219 -3.316406 L 2.621094 -8.1875 C 2.527344 -8.320312 2.394531 -8.425781 2.289062 -8.425781 L 1.070312 -8.425781 C 0.964844 -8.425781 0.828125 -8.347656 0.828125 -8.1875 L 0.828125 -0.242188 C 0.828125 -0.0820312 0.964844 0 1.070312 0 L 2.3125 0 C 2.421875 0 2.554688 -0.0820312 2.554688 -0.242188 L 2.554688 -5.003906 Z M 5.632812 -0.242188 "/></g></g></g><g fill="#000000" fill-opacity="1"><g transform="translate(107.278502, 32.925995)"><g><path d="M 0.667969 -8.425781 C 0.507812 -8.425781 0.429688 -8.292969 0.429688 -8.1875 L 0.429688 -7.089844 C 0.429688 -6.984375 0.507812 -6.847656 0.667969 -6.847656 L 2.542969 -6.847656 L 2.542969 -0.242188 C 2.542969 -0.0820312 2.675781 0 2.78125 0 L 4.027344 0 C 4.132812 0 4.265625 -0.0820312 4.265625 -0.242188 L 4.265625 -6.847656 L 6.140625 -6.847656 C 6.300781 -6.847656 6.378906 -6.984375 6.378906 -7.089844 L 6.378906 -8.1875 C 6.378906 -8.292969 6.300781 -8.425781 6.140625 -8.425781 Z M 0.667969 -8.425781 "/></g></g></g><g fill="#000000" fill-opacity="1"><g transform="translate(115.490431, 32.925995)"><g><path d="M 4.027344 0.105469 C 6.609375 0.105469 7.222656 -1.511719 7.222656 -2.941406 L 7.222656 -8.1875 C 7.222656 -8.347656 7.089844 -8.425781 6.984375 -8.425781 L 5.738281 -8.425781 C 5.632812 -8.425781 5.496094 -8.347656 5.496094 -8.1875 L 5.496094 -2.929688 C 5.496094 -1.605469 4.453125 -1.472656 4.027344 -1.472656 C 3.597656 -1.472656 2.554688 -1.605469 2.554688 -2.929688 L 2.554688 -8.1875 C 2.554688 -8.347656 2.421875 -8.425781 2.3125 -8.425781 L 1.070312 -8.425781 C 0.964844 -8.425781 0.828125 -8.347656 0.828125 -8.1875 L 0.828125 -2.941406 C 0.828125 -1.511719 1.445312 0.105469 4.027344 0.105469 Z M 4.027344 0.105469 "/></g></g></g><g fill="#000000" fill-opacity="1"><g transform="translate(124.946099, 32.925995)"><g><path d="M 5.363281 -1.792969 C 5.496094 -1.792969 5.550781 -1.898438 5.589844 -1.953125 L 7.101562 -4.949219 L 7.101562 -0.242188 C 7.101562 -0.0820312 7.238281 0 7.34375 0 L 8.585938 0 C 8.695312 0 8.828125 -0.0820312 8.828125 -0.242188 L 8.828125 -8.1875 C 8.828125 -8.347656 8.695312 -8.425781 8.585938 -8.425781 L 7.332031 -8.425781 C 7.222656 -8.425781 7.101562 -8.332031 7.035156 -8.1875 L 4.828125 -3.800781 L 2.621094 -8.1875 C 2.554688 -8.332031 2.433594 -8.425781 2.328125 -8.425781 L 1.070312 -8.425781 C 0.964844 -8.425781 0.828125 -8.347656 0.828125 -8.1875 L 0.828125 -0.242188 C 0.828125 -0.0820312 0.964844 0 1.070312 0 L 2.3125 0 C 2.421875 0 2.554688 -0.0820312 2.554688 -0.242188 L 2.554688 -4.949219 L 4.066406 -1.953125 C 4.105469 -1.898438 4.160156 -1.792969 4.292969 -1.792969 Z M 5.363281 -1.792969 "/></g></g></g><g fill="#000000" fill-opacity="1"><g transform="translate(70.246191, 45.482759)"><g><path d="M 0.464844 -5.035156 C 0.367188 -5.035156 0.320312 -4.957031 0.320312 -4.890625 L 0.320312 -4.402344 C 0.320312 -4.339844 0.367188 -4.261719 0.464844 -4.261719 L 1.644531 -4.261719 L 1.644531 -0.144531 C 1.644531 -0.046875 1.726562 0 1.789062 0 L 2.277344 0 C 2.339844 0 2.421875 -0.046875 2.421875 -0.144531 L 2.421875 -4.261719 L 3.605469 -4.261719 C 3.699219 -4.261719 3.75 -4.339844 3.75 -4.402344 L 3.75 -4.890625 C 3.75 -4.957031 3.699219 -5.035156 3.605469 -5.035156 Z M 0.464844 -5.035156 "/></g></g></g><g fill="#000000" fill-opacity="1"><g transform="translate(75.273177, 45.482759)"><g><path d="M 1.335938 -0.773438 L 1.335938 -2.085938 L 3.027344 -2.085938 C 3.125 -2.085938 3.171875 -2.164062 3.171875 -2.230469 L 3.171875 -2.71875 C 3.171875 -2.78125 3.125 -2.859375 3.027344 -2.859375 L 1.335938 -2.859375 L 1.335938 -4.261719 L 3.40625 -4.261719 C 3.5 -4.261719 3.546875 -4.339844 3.546875 -4.402344 L 3.546875 -4.890625 C 3.546875 -4.957031 3.5 -5.035156 3.40625 -5.035156 L 0.703125 -5.035156 C 0.605469 -5.035156 0.558594 -4.957031 0.558594 -4.890625 L 0.558594 -0.144531 C 0.558594 -0.078125 0.605469 0 0.703125 0 L 3.40625 0 C 3.5 0 3.546875 -0.078125 3.546875 -0.144531 L 3.546875 -0.632812 C 3.546875 -0.695312 3.5 -0.773438 3.40625 -0.773438 Z M 1.335938 -0.773438 "/></g></g></g><g fill="#000000" fill-opacity="1"><g transform="translate(80.34012, 45.482759)"><g><path d="M 1.292969 -3.140625 C 1.292969 -4.074219 2.023438 -4.339844 2.628906 -4.339844 C 2.910156 -4.339844 3.214844 -4.316406 3.507812 -4.25 C 3.546875 -4.25 3.597656 -4.269531 3.621094 -4.332031 L 3.691406 -4.835938 C 3.691406 -4.859375 3.675781 -4.921875 3.613281 -4.945312 C 3.253906 -5.035156 2.78125 -5.082031 2.460938 -5.082031 C 0.785156 -5.082031 0.519531 -3.84375 0.519531 -3.308594 L 0.519531 -1.726562 C 0.519531 -1.191406 0.785156 0.046875 2.460938 0.046875 C 2.78125 0.046875 3.253906 0 3.613281 -0.0898438 C 3.675781 -0.113281 3.691406 -0.175781 3.691406 -0.199219 L 3.621094 -0.703125 C 3.597656 -0.765625 3.546875 -0.785156 3.507812 -0.785156 C 3.214844 -0.71875 2.910156 -0.695312 2.628906 -0.695312 C 2.023438 -0.695312 1.292969 -0.960938 1.292969 -1.894531 Z M 1.292969 -3.140625 "/></g></g></g><g fill="#000000" fill-opacity="1"><g transform="translate(85.510958, 45.482759)"><g><path d="M 4.050781 -5.035156 L 3.566406 -5.035156 C 3.5 -5.035156 3.421875 -4.988281 3.421875 -4.890625 L 3.421875 -2.605469 L 1.335938 -2.605469 L 1.335938 -4.890625 C 1.335938 -4.988281 1.253906 -5.035156 1.191406 -5.035156 L 0.703125 -5.035156 C 0.640625 -5.035156 0.558594 -4.988281 0.558594 -4.890625 L 0.558594 -0.144531 C 0.558594 -0.046875 0.640625 0 0.703125 0 L 1.191406 0 C 1.253906 0 1.335938 -0.046875 1.335938 -0.144531 L 1.335938 -1.832031 L 3.421875 -1.832031 L 3.421875 -0.144531 C 3.421875 -0.046875 3.5 0 3.566406 0 L 4.050781 0 C 4.117188 0 4.195312 -0.046875 4.195312 -0.144531 L 4.195312 -4.890625 C 4.195312 -4.988281 4.117188 -5.035156 4.050781 -5.035156 Z M 4.050781 -5.035156 "/></g></g></g><g fill="#000000" fill-opacity="1"><g transform="translate(91.225234, 45.482759)"><g/></g></g><g fill="#000000" fill-opacity="1"><g transform="translate(93.774773, 45.482759)"><g><path d="M 0.605469 -0.289062 C 1.253906 0.03125 2.148438 0.046875 2.148438 0.046875 C 3.875 0.046875 4.011719 -0.910156 4.011719 -1.335938 C 4.011719 -3.140625 1.214844 -2.660156 1.214844 -3.722656 C 1.214844 -4.226562 1.605469 -4.339844 2.253906 -4.339844 C 2.558594 -4.339844 2.804688 -4.308594 3.046875 -4.261719 C 3.078125 -4.25 3.164062 -4.234375 3.1875 -4.234375 C 3.246094 -4.234375 3.269531 -4.261719 3.292969 -4.300781 L 3.445312 -4.667969 C 3.453125 -4.691406 3.46875 -4.730469 3.46875 -4.761719 C 3.46875 -4.804688 3.460938 -4.84375 3.40625 -4.867188 C 3.011719 -5.035156 2.703125 -5.082031 2.140625 -5.082031 C 1.214844 -5.082031 0.441406 -4.683594 0.441406 -3.699219 C 0.441406 -2.007812 3.246094 -2.453125 3.246094 -1.328125 C 3.246094 -1 3.164062 -0.695312 2.191406 -0.695312 C 1.832031 -0.695312 1.351562 -0.742188 0.917969 -0.941406 C 0.886719 -0.960938 0.863281 -0.96875 0.839844 -0.96875 C 0.785156 -0.96875 0.757812 -0.933594 0.734375 -0.894531 L 0.558594 -0.496094 C 0.542969 -0.457031 0.535156 -0.421875 0.535156 -0.398438 C 0.535156 -0.359375 0.550781 -0.320312 0.605469 -0.289062 Z M 0.605469 -0.289062 "/></g></g></g><g fill="#000000" fill-opacity="1"><g transform="translate(99.145404, 45.482759)"><g><path d="M 2.339844 -5.082031 C 0.488281 -5.082031 0.480469 -3.539062 0.480469 -3.203125 L 0.480469 -1.757812 C 0.480469 -1.460938 0.488281 0.046875 2.339844 0.046875 C 4.195312 0.046875 4.203125 -1.460938 4.203125 -1.757812 L 4.203125 -3.203125 C 4.203125 -3.539062 4.195312 -5.082031 2.339844 -5.082031 Z M 2.339844 -0.695312 C 2.015625 -0.695312 1.253906 -0.824219 1.253906 -1.820312 L 1.253906 -3.214844 C 1.253906 -4.210938 2.015625 -4.339844 2.339844 -4.339844 C 2.667969 -4.339844 3.429688 -4.210938 3.429688 -3.214844 L 3.429688 -1.820312 C 3.429688 -0.824219 2.667969 -0.695312 2.339844 -0.695312 Z M 2.339844 -0.695312 "/></g></g></g><g fill="#000000" fill-opacity="1"><g transform="translate(104.787752, 45.482759)"><g><path d="M 0.558594 -0.144531 C 0.558594 -0.078125 0.605469 0 0.703125 0 L 3.40625 0 C 3.5 0 3.546875 -0.078125 3.546875 -0.144531 L 3.546875 -0.632812 C 3.546875 -0.695312 3.5 -0.773438 3.40625 -0.773438 L 1.335938 -0.773438 L 1.335938 -4.890625 C 1.335938 -4.988281 1.253906 -5.035156 1.191406 -5.035156 L 0.703125 -5.035156 C 0.640625 -5.035156 0.558594 -4.988281 0.558594 -4.890625 Z M 0.558594 -0.144531 "/></g></g></g><g fill="#000000" fill-opacity="1"><g transform="translate(109.77478, 45.482759)"><g><path d="M 2.429688 0.046875 C 3.941406 0.046875 4.300781 -0.902344 4.300781 -1.726562 L 4.300781 -4.890625 C 4.300781 -4.988281 4.21875 -5.035156 4.15625 -5.035156 L 3.667969 -5.035156 C 3.605469 -5.035156 3.523438 -4.988281 3.523438 -4.890625 L 3.523438 -1.789062 C 3.523438 -0.792969 2.75 -0.695312 2.429688 -0.695312 C 2.109375 -0.695312 1.335938 -0.792969 1.335938 -1.789062 L 1.335938 -4.890625 C 1.335938 -4.988281 1.253906 -5.035156 1.191406 -5.035156 L 0.703125 -5.035156 C 0.640625 -5.035156 0.558594 -4.988281 0.558594 -4.890625 L 0.558594 -1.726562 C 0.558594 -0.902344 0.917969 0.046875 2.429688 0.046875 Z M 2.429688 0.046875 "/></g></g></g><g fill="#000000" fill-opacity="1"><g transform="translate(115.592948, 45.482759)"><g><path d="M 0.464844 -5.035156 C 0.367188 -5.035156 0.320312 -4.957031 0.320312 -4.890625 L 0.320312 -4.402344 C 0.320312 -4.339844 0.367188 -4.261719 0.464844 -4.261719 L 1.644531 -4.261719 L 1.644531 -0.144531 C 1.644531 -0.046875 1.726562 0 1.789062 0 L 2.277344 0 C 2.339844 0 2.421875 -0.046875 2.421875 -0.144531 L 2.421875 -4.261719 L 3.605469 -4.261719 C 3.699219 -4.261719 3.75 -4.339844 3.75 -4.402344 L 3.75 -4.890625 C 3.75 -4.957031 3.699219 -5.035156 3.605469 -5.035156 Z M 0.464844 -5.035156 "/></g></g></g><g fill="#000000" fill-opacity="1"><g transform="translate(120.619932, 45.482759)"><g><path d="M 1.335938 -4.890625 C 1.335938 -4.980469 1.277344 -5.035156 1.191406 -5.035156 L 0.703125 -5.035156 C 0.617188 -5.035156 0.558594 -4.980469 0.558594 -4.890625 L 0.558594 -0.144531 C 0.558594 -0.0546875 0.617188 0 0.703125 0 L 1.191406 0 C 1.277344 0 1.335938 -0.0546875 1.335938 -0.144531 Z M 1.335938 -4.890625 "/></g></g></g><g fill="#000000" fill-opacity="1"><g transform="translate(123.473156, 45.482759)"><g><path d="M 2.339844 -5.082031 C 0.488281 -5.082031 0.480469 -3.539062 0.480469 -3.203125 L 0.480469 -1.757812 C 0.480469 -1.460938 0.488281 0.046875 2.339844 0.046875 C 4.195312 0.046875 4.203125 -1.460938 4.203125 -1.757812 L 4.203125 -3.203125 C 4.203125 -3.539062 4.195312 -5.082031 2.339844 -5.082031 Z M 2.339844 -0.695312 C 2.015625 -0.695312 1.253906 -0.824219 1.253906 -1.820312 L 1.253906 -3.214844 C 1.253906 -4.210938 2.015625 -4.339844 2.339844 -4.339844 C 2.667969 -4.339844 3.429688 -4.210938 3.429688 -3.214844 L 3.429688 -1.820312 C 3.429688 -0.824219 2.667969 -0.695312 2.339844 -0.695312 Z M 2.339844 -0.695312 "/></g></g></g><g fill="#000000" fill-opacity="1"><g transform="translate(129.115502, 45.482759)"><g><path d="M 3.582031 -0.144531 C 3.636719 -0.0625 3.722656 0 3.789062 0 L 4.277344 0 C 4.339844 0 4.417969 -0.046875 4.417969 -0.144531 L 4.417969 -4.890625 C 4.417969 -4.988281 4.339844 -5.035156 4.277344 -5.035156 L 3.789062 -5.035156 C 3.722656 -5.035156 3.644531 -4.988281 3.644531 -4.890625 L 3.644531 -1.4375 L 1.382812 -4.890625 C 1.328125 -4.972656 1.246094 -5.035156 1.183594 -5.035156 L 0.703125 -5.035156 C 0.640625 -5.035156 0.558594 -4.988281 0.558594 -4.890625 L 0.558594 -0.144531 C 0.558594 -0.046875 0.640625 0 0.703125 0 L 1.191406 0 C 1.253906 0 1.335938 -0.046875 1.335938 -0.144531 L 1.335938 -3.597656 Z M 3.582031 -0.144531 "/></g></g></g><g clip-path="url(#505184b633)"><path fill="#00bf63" d="M 38.734375 41.507812 C 38.734375 39.761719 37.320312 38.359375 35.585938 38.359375 C 33.851562 38.359375 32.4375 39.773438 32.4375 41.507812 C 32.4375 43.867188 31.652344 44.65625 29.289062 44.65625 C 26.929688 44.65625 26.140625 43.867188 26.140625 41.507812 C 26.140625 39.761719 24.730469 38.359375 22.996094 38.359375 C 21.257812 38.359375 19.847656 39.773438 19.847656 41.507812 C 19.847656 43.253906 21.257812 44.65625 22.996094 44.65625 C 25.355469 44.65625 26.140625 45.441406 26.140625 47.804688 C 26.140625 49.546875 27.554688 50.953125 29.289062 50.953125 C 31.027344 50.953125 32.4375 49.539062 32.4375 47.804688 C 32.4375 45.441406 33.226562 44.65625 35.585938 44.65625 C 36.003906 44.65625 36.40625 44.578125 36.792969 44.417969 C 37.179688 44.257812 37.519531 44.03125 37.816406 43.734375 C 38.109375 43.441406 38.335938 43.101562 38.496094 42.714844 C 38.65625 42.328125 38.734375 41.925781 38.734375 41.507812 Z M 38.734375 41.507812 " fill-opacity="1" fill-rule="nonzero"/></g><g clip-path="url(#243f525cda)"><path fill="#00bf63" d="M 19.828125 35.203125 C 19.828125 34.785156 19.746094 34.382812 19.585938 33.996094 C 19.429688 33.613281 19.199219 33.273438 18.90625 32.976562 C 18.609375 32.679688 18.269531 32.453125 17.882812 32.292969 C 17.5 32.132812 17.097656 32.054688 16.679688 32.054688 C 16.261719 32.054688 15.859375 32.132812 15.476562 32.292969 C 15.089844 32.453125 14.75 32.679688 14.453125 32.976562 C 14.160156 33.273438 13.929688 33.613281 13.769531 33.996094 C 13.609375 34.382812 13.53125 34.785156 13.53125 35.203125 C 13.53125 35.621094 13.609375 36.023438 13.769531 36.40625 C 13.929688 36.792969 14.160156 37.132812 14.453125 37.429688 C 14.75 37.722656 15.089844 37.949219 15.476562 38.109375 C 15.859375 38.269531 16.261719 38.351562 16.679688 38.351562 C 17.097656 38.351562 17.5 38.269531 17.882812 38.109375 C 18.269531 37.949219 18.609375 37.722656 18.90625 37.429688 C 19.199219 37.132812 19.429688 36.792969 19.585938 36.40625 C 19.746094 36.023438 19.828125 35.621094 19.828125 35.203125 Z M 19.828125 35.203125 " fill-opacity="1" fill-rule="nonzero"/></g><g clip-path="url(#8da0e40f14)"><path fill="#00bf63" d="M 57.652344 47.8125 C 57.652344 46.070312 56.238281 44.664062 54.503906 44.664062 C 52.140625 44.664062 51.355469 43.878906 51.355469 41.515625 C 51.355469 39.773438 49.941406 38.371094 48.207031 38.371094 C 45.847656 38.371094 45.058594 37.582031 45.058594 35.222656 C 45.058594 33.476562 43.644531 32.074219 41.910156 32.074219 C 40.175781 32.074219 38.761719 33.484375 38.761719 35.222656 C 38.761719 36.964844 40.175781 38.371094 41.910156 38.371094 C 44.273438 38.371094 45.058594 39.15625 45.058594 41.515625 C 45.058594 43.261719 46.472656 44.664062 48.207031 44.664062 C 50.566406 44.664062 51.355469 45.453125 51.355469 47.8125 C 51.355469 49.558594 52.765625 50.960938 54.503906 50.960938 C 56.238281 50.960938 57.652344 49.546875 57.652344 47.8125 Z M 57.652344 47.8125 " fill-opacity="1" fill-rule="nonzero"/></g><g clip-path="url(#a2732ca998)"><path fill="#00bf63" d="M 32.445312 28.988281 C 32.445312 27.242188 33.859375 25.839844 35.59375 25.839844 C 37.328125 25.839844 38.742188 27.25 38.742188 28.988281 C 38.742188 31.347656 39.527344 32.136719 41.890625 32.136719 C 44.25 32.136719 45.039062 31.347656 45.039062 28.988281 C 45.039062 27.242188 46.449219 25.839844 48.183594 25.839844 C 49.921875 25.839844 51.332031 27.25 51.332031 28.988281 C 51.332031 30.730469 49.921875 32.136719 48.183594 32.136719 C 45.824219 32.136719 45.039062 32.921875 45.039062 35.28125 C 45.039062 37.027344 43.625 38.429688 41.890625 38.429688 C 40.152344 38.429688 38.742188 37.019531 38.742188 35.28125 C 38.742188 32.921875 37.953125 32.136719 35.59375 32.136719 C 35.175781 32.136719 34.773438 32.058594 34.386719 31.898438 C 34 31.738281 33.660156 31.511719 33.363281 31.214844 C 33.070312 30.917969 32.84375 30.578125 32.683594 30.191406 C 32.523438 29.808594 32.445312 29.40625 32.445312 28.988281 Z M 32.445312 28.988281 " fill-opacity="1" fill-rule="nonzero"/></g><g clip-path="url(#07eb9f349e)"><path fill="#00bf63" d="M 51.351562 22.679688 C 51.351562 22.265625 51.433594 21.863281 51.59375 21.476562 C 51.75 21.089844 51.980469 20.75 52.273438 20.457031 C 52.570312 20.160156 52.910156 19.933594 53.296875 19.773438 C 53.679688 19.613281 54.082031 19.535156 54.5 19.535156 C 54.917969 19.535156 55.320312 19.613281 55.703125 19.773438 C 56.089844 19.933594 56.429688 20.160156 56.726562 20.457031 C 57.019531 20.75 57.25 21.089844 57.410156 21.476562 C 57.570312 21.863281 57.648438 22.265625 57.648438 22.679688 C 57.648438 23.097656 57.570312 23.5 57.410156 23.886719 C 57.25 24.273438 57.019531 24.613281 56.726562 24.90625 C 56.429688 25.203125 56.089844 25.429688 55.703125 25.589844 C 55.320312 25.75 54.917969 25.828125 54.5 25.828125 C 54.082031 25.828125 53.679688 25.75 53.296875 25.589844 C 52.910156 25.429688 52.570312 25.203125 52.273438 24.90625 C 51.980469 24.613281 51.75 24.273438 51.59375 23.886719 C 51.433594 23.5 51.351562 23.097656 51.351562 22.679688 Z M 51.351562 22.679688 " fill-opacity="1" fill-rule="nonzero"/></g><g clip-path="url(#9ceec1ad18)"><path fill="#00bf63" d="M 13.527344 35.292969 C 13.527344 33.546875 14.941406 32.144531 16.675781 32.144531 C 19.039062 32.144531 19.824219 31.359375 19.824219 28.996094 C 19.824219 27.25 21.238281 25.847656 22.972656 25.847656 C 25.332031 25.847656 26.121094 25.0625 26.121094 22.699219 C 26.121094 20.957031 27.535156 19.550781 29.269531 19.550781 C 31.003906 19.550781 32.417969 20.964844 32.417969 22.699219 C 32.417969 24.445312 31.003906 25.847656 29.269531 25.847656 C 26.90625 25.847656 26.121094 26.636719 26.121094 28.996094 C 26.121094 30.742188 24.707031 32.144531 22.972656 32.144531 C 20.613281 32.144531 19.824219 32.929688 19.824219 35.292969 C 19.824219 37.039062 18.414062 38.441406 16.675781 38.441406 C 14.941406 38.441406 13.527344 37.027344 13.527344 35.292969 Z M 13.527344 35.292969 " fill-opacity="1" fill-rule="nonzero"/></g></svg>