<svg xmlns="http://www.w3.org/2000/svg" xmlns:xlink="http://www.w3.org/1999/xlink" width="500" zoomAndPan="magnify" viewBox="0 0 375 374.999991" height="500" preserveAspectRatio="xMidYMid meet" version="1.0"><defs><g/><clipPath id="bc436be2f4"><path d="M 120 159 L 207 159 L 207 216.9375 L 120 216.9375 Z M 120 159 " clip-rule="nonzero"/></clipPath><clipPath id="926075b5f1"><path d="M 92 131.4375 L 121 131.4375 L 121 160 L 92 160 Z M 92 131.4375 " clip-rule="nonzero"/></clipPath><clipPath id="104caa1b7c"><path d="M 206 131.4375 L 292 131.4375 L 292 216.9375 L 206 216.9375 Z M 206 131.4375 " clip-rule="nonzero"/></clipPath><clipPath id="35769b7162"><path d="M 177 103 L 264 103 L 264 160.269531 L 177 160.269531 Z M 177 103 " clip-rule="nonzero"/></clipPath><clipPath id="13290a858a"><path d="M 263 74.769531 L 292 74.769531 L 292 104 L 263 104 Z M 263 74.769531 " clip-rule="nonzero"/></clipPath><clipPath id="ae1f6181eb"><path d="M 92 74.769531 L 178 74.769531 L 178 160.269531 L 92 160.269531 Z M 92 74.769531 " clip-rule="nonzero"/></clipPath></defs><g clip-path="url(#bc436be2f4)"><path fill="#00bf63" d="M 206.128906 174.183594 C 206.128906 166.285156 199.734375 159.933594 191.878906 159.933594 C 184.023438 159.933594 177.628906 166.328125 177.628906 174.183594 C 177.628906 184.871094 174.066406 188.433594 163.378906 188.433594 C 152.691406 188.433594 149.128906 184.871094 149.128906 174.183594 C 149.128906 166.285156 142.734375 159.933594 134.878906 159.933594 C 127.023438 159.933594 120.628906 166.328125 120.628906 174.183594 C 120.628906 182.082031 127.023438 188.433594 134.878906 188.433594 C 145.566406 188.433594 149.128906 191.996094 149.128906 202.683594 C 149.128906 210.582031 155.523438 216.933594 163.378906 216.933594 C 171.234375 216.933594 177.628906 210.539062 177.628906 202.683594 C 177.628906 191.996094 181.191406 188.433594 191.878906 188.433594 C 192.816406 188.4375 193.742188 188.347656 194.660156 188.164062 C 195.582031 187.984375 196.472656 187.714844 197.339844 187.359375 C 198.203125 187 199.027344 186.5625 199.804688 186.042969 C 200.582031 185.523438 201.304688 184.933594 201.964844 184.269531 C 202.628906 183.609375 203.21875 182.886719 203.738281 182.109375 C 204.257812 181.332031 204.695312 180.507812 205.054688 179.640625 C 205.410156 178.777344 205.679688 177.886719 205.859375 176.964844 C 206.042969 176.046875 206.132812 175.121094 206.128906 174.183594 Z M 206.128906 174.183594 " fill-opacity="1" fill-rule="nonzero"/></g><g clip-path="url(#926075b5f1)"><path fill="#00bf63" d="M 120.542969 145.640625 C 120.542969 144.707031 120.453125 143.777344 120.269531 142.859375 C 120.085938 141.941406 119.816406 141.050781 119.457031 140.1875 C 119.101562 139.324219 118.660156 138.503906 118.140625 137.722656 C 117.621094 136.945312 117.03125 136.226562 116.371094 135.566406 C 115.707031 134.902344 114.988281 134.3125 114.210938 133.792969 C 113.433594 133.273438 112.613281 132.832031 111.746094 132.476562 C 110.882812 132.117188 109.992188 131.847656 109.074219 131.664062 C 108.15625 131.480469 107.230469 131.390625 106.292969 131.390625 C 105.359375 131.390625 104.429688 131.480469 103.515625 131.664062 C 102.597656 131.847656 101.703125 132.117188 100.839844 132.476562 C 99.976562 132.832031 99.15625 133.273438 98.375 133.792969 C 97.597656 134.3125 96.878906 134.902344 96.21875 135.566406 C 95.554688 136.226562 94.964844 136.945312 94.445312 137.722656 C 93.925781 138.503906 93.488281 139.324219 93.128906 140.1875 C 92.769531 141.050781 92.5 141.941406 92.316406 142.859375 C 92.136719 143.777344 92.042969 144.707031 92.042969 145.640625 C 92.042969 146.578125 92.136719 147.503906 92.316406 148.421875 C 92.5 149.339844 92.769531 150.230469 93.128906 151.09375 C 93.488281 151.957031 93.925781 152.78125 94.445312 153.558594 C 94.964844 154.335938 95.554688 155.054688 96.21875 155.71875 C 96.878906 156.378906 97.597656 156.96875 98.375 157.488281 C 99.15625 158.007812 99.976562 158.449219 100.839844 158.804688 C 101.703125 159.164062 102.597656 159.433594 103.515625 159.617188 C 104.429688 159.800781 105.359375 159.890625 106.292969 159.890625 C 107.230469 159.890625 108.15625 159.800781 109.074219 159.617188 C 109.992188 159.433594 110.882812 159.164062 111.746094 158.804688 C 112.613281 158.449219 113.433594 158.007812 114.210938 157.488281 C 114.988281 156.96875 115.707031 156.378906 116.371094 155.71875 C 117.03125 155.054688 117.621094 154.335938 118.140625 153.558594 C 118.660156 152.78125 119.101562 151.957031 119.460938 151.09375 C 119.816406 150.230469 120.085938 149.339844 120.269531 148.421875 C 120.453125 147.503906 120.542969 146.578125 120.542969 145.640625 Z M 120.542969 145.640625 " fill-opacity="1" fill-rule="nonzero"/></g><g clip-path="url(#104caa1b7c)"><path fill="#00bf63" d="M 291.757812 202.726562 C 291.757812 194.828125 285.363281 188.476562 277.507812 188.476562 C 266.820312 188.476562 263.257812 184.914062 263.257812 174.226562 C 263.257812 166.328125 256.863281 159.976562 249.007812 159.976562 C 238.320312 159.976562 234.757812 156.414062 234.757812 145.726562 C 234.757812 137.828125 228.363281 131.476562 220.507812 131.476562 C 212.652344 131.476562 206.257812 137.871094 206.257812 145.726562 C 206.257812 153.625 212.652344 159.976562 220.507812 159.976562 C 231.195312 159.976562 234.757812 163.539062 234.757812 174.226562 C 234.757812 182.125 241.152344 188.476562 249.007812 188.476562 C 259.695312 188.476562 263.257812 192.039062 263.257812 202.726562 C 263.257812 210.625 269.652344 216.976562 277.507812 216.976562 C 285.363281 216.976562 291.757812 210.582031 291.757812 202.726562 Z M 291.757812 202.726562 " fill-opacity="1" fill-rule="nonzero"/></g><g fill="#000000" fill-opacity="1"><g transform="translate(60.717429, 279.583824)"><g><path d="M 15.4375 -34.082031 C 2.832031 -34.082031 2.777344 -23.449219 2.777344 -23.449219 L 2.777344 -10.203125 C 2.777344 -10.203125 2.832031 -1.175781 12.660156 0.214844 L 15.332031 5.714844 C 15.597656 6.304688 16.1875 6.675781 16.613281 6.675781 L 21.582031 6.675781 C 22.007812 6.675781 22.542969 6.355469 22.542969 5.714844 L 19.710938 -0.0546875 C 28.042969 -2.136719 28.097656 -10.203125 28.097656 -10.203125 L 28.097656 -23.449219 C 28.097656 -23.449219 28.042969 -34.082031 15.4375 -34.082031 Z M 15.4375 -5.875 C 13.726562 -5.875 9.667969 -6.410156 9.667969 -11.699219 L 9.667969 -21.953125 C 9.667969 -27.242188 13.726562 -27.777344 15.4375 -27.777344 C 17.148438 -27.777344 21.207031 -27.242188 21.207031 -21.953125 L 21.207031 -11.699219 C 21.207031 -6.410156 17.148438 -5.875 15.4375 -5.875 Z M 15.4375 -5.875 "/></g></g></g><g fill="#000000" fill-opacity="1"><g transform="translate(97.195537, 279.583824)"><g><path d="M 16.078125 0.425781 C 26.386719 0.425781 28.847656 -6.035156 28.847656 -11.753906 L 28.847656 -32.691406 C 28.847656 -33.332031 28.3125 -33.652344 27.882812 -33.652344 L 22.917969 -33.652344 C 22.488281 -33.652344 21.953125 -33.332031 21.953125 -32.691406 L 21.953125 -11.699219 C 21.953125 -6.410156 17.789062 -5.875 16.078125 -5.875 C 14.371094 -5.875 10.203125 -6.410156 10.203125 -11.699219 L 10.203125 -32.691406 C 10.203125 -33.332031 9.667969 -33.652344 9.242188 -33.652344 L 4.273438 -33.652344 C 3.847656 -33.652344 3.3125 -33.332031 3.3125 -32.691406 L 3.3125 -11.753906 C 3.3125 -6.035156 5.769531 0.425781 16.078125 0.425781 Z M 16.078125 0.425781 "/></g></g></g><g fill="#000000" fill-opacity="1"><g transform="translate(134.955368, 279.583824)"><g><path d="M 12.179688 -33.652344 C 11.859375 -33.652344 11.429688 -33.441406 11.269531 -33.011719 L 1.441406 -0.960938 C 1.441406 -0.320312 1.976562 0 2.402344 0 L 7.265625 0 C 7.691406 0 8.121094 -0.320312 8.332031 -0.960938 L 9.5625 -5.128906 L 21.902344 -5.128906 L 23.183594 -0.960938 C 23.398438 -0.320312 23.824219 0 24.25 0 L 29.113281 0 C 29.539062 0 30.074219 -0.320312 30.074219 -0.960938 L 20.246094 -33.011719 C 20.085938 -33.441406 19.65625 -33.652344 19.335938 -33.652344 Z M 15.757812 -25.320312 L 19.976562 -11.429688 L 11.484375 -11.429688 Z M 15.757812 -25.320312 "/></g></g></g><g fill="#000000" fill-opacity="1"><g transform="translate(172.074328, 279.583824)"><g><path d="M 22.488281 -0.960938 C 22.808594 -0.425781 23.398438 0 23.824219 0 L 28.6875 0 C 29.113281 0 29.648438 -0.320312 29.648438 -0.960938 L 29.648438 -32.691406 C 29.648438 -33.332031 29.113281 -33.652344 28.6875 -33.652344 L 23.71875 -33.652344 C 23.289062 -33.652344 22.757812 -33.332031 22.757812 -32.691406 L 22.757812 -13.246094 L 10.46875 -32.691406 C 10.097656 -33.226562 9.5625 -33.652344 9.132812 -33.652344 L 4.273438 -33.652344 C 3.847656 -33.652344 3.3125 -33.332031 3.3125 -32.691406 L 3.3125 -0.960938 C 3.3125 -0.320312 3.847656 0 4.273438 0 L 9.242188 0 C 9.667969 0 10.203125 -0.320312 10.203125 -0.960938 L 10.203125 -19.976562 Z M 22.488281 -0.960938 "/></g></g></g><g fill="#000000" fill-opacity="1"><g transform="translate(210.635241, 279.583824)"><g><path d="M 2.671875 -33.652344 C 2.03125 -33.652344 1.710938 -33.121094 1.710938 -32.691406 L 1.710938 -28.3125 C 1.710938 -27.882812 2.03125 -27.351562 2.671875 -27.351562 L 10.148438 -27.351562 L 10.148438 -0.960938 C 10.148438 -0.320312 10.683594 0 11.109375 0 L 16.078125 0 C 16.507812 0 17.039062 -0.320312 17.039062 -0.960938 L 17.039062 -27.351562 L 24.519531 -27.351562 C 25.160156 -27.351562 25.480469 -27.882812 25.480469 -28.3125 L 25.480469 -32.691406 C 25.480469 -33.121094 25.160156 -33.652344 24.519531 -33.652344 Z M 2.671875 -33.652344 "/></g></g></g><g fill="#000000" fill-opacity="1"><g transform="translate(243.42837, 279.583824)"><g><path d="M 16.078125 0.425781 C 26.386719 0.425781 28.847656 -6.035156 28.847656 -11.753906 L 28.847656 -32.691406 C 28.847656 -33.332031 28.3125 -33.652344 27.882812 -33.652344 L 22.917969 -33.652344 C 22.488281 -33.652344 21.953125 -33.332031 21.953125 -32.691406 L 21.953125 -11.699219 C 21.953125 -6.410156 17.789062 -5.875 16.078125 -5.875 C 14.371094 -5.875 10.203125 -6.410156 10.203125 -11.699219 L 10.203125 -32.691406 C 10.203125 -33.332031 9.667969 -33.652344 9.242188 -33.652344 L 4.273438 -33.652344 C 3.847656 -33.652344 3.3125 -33.332031 3.3125 -32.691406 L 3.3125 -11.753906 C 3.3125 -6.035156 5.769531 0.425781 16.078125 0.425781 Z M 16.078125 0.425781 "/></g></g></g><g fill="#000000" fill-opacity="1"><g transform="translate(281.188192, 279.583824)"><g><path d="M 21.421875 -7.15625 C 21.953125 -7.15625 22.167969 -7.585938 22.328125 -7.800781 L 28.363281 -19.765625 L 28.363281 -0.960938 C 28.363281 -0.320312 28.898438 0 29.328125 0 L 34.292969 0 C 34.722656 0 35.257812 -0.320312 35.257812 -0.960938 L 35.257812 -32.691406 C 35.257812 -33.332031 34.722656 -33.652344 34.292969 -33.652344 L 29.273438 -33.652344 C 28.847656 -33.652344 28.363281 -33.28125 28.097656 -32.691406 L 19.285156 -15.171875 L 10.46875 -32.691406 C 10.203125 -33.28125 9.722656 -33.652344 9.292969 -33.652344 L 4.273438 -33.652344 C 3.847656 -33.652344 3.3125 -33.332031 3.3125 -32.691406 L 3.3125 -0.960938 C 3.3125 -0.320312 3.847656 0 4.273438 0 L 9.242188 0 C 9.667969 0 10.203125 -0.320312 10.203125 -0.960938 L 10.203125 -19.765625 L 16.238281 -7.800781 C 16.398438 -7.585938 16.613281 -7.15625 17.148438 -7.15625 Z M 21.421875 -7.15625 "/></g></g></g><g fill="#000000" fill-opacity="1"><g transform="translate(64.401917, 321.336706)"><g><path d="M 1.851562 -20.105469 C 1.46875 -20.105469 1.277344 -19.789062 1.277344 -19.53125 L 1.277344 -17.585938 C 1.277344 -17.332031 1.46875 -17.011719 1.851562 -17.011719 L 6.574219 -17.011719 L 6.574219 -0.574219 C 6.574219 -0.191406 6.894531 0 7.148438 0 L 9.097656 0 C 9.351562 0 9.671875 -0.191406 9.671875 -0.574219 L 9.671875 -17.011719 L 14.394531 -17.011719 C 14.777344 -17.011719 14.96875 -17.332031 14.96875 -17.585938 L 14.96875 -19.53125 C 14.96875 -19.789062 14.777344 -20.105469 14.394531 -20.105469 Z M 1.851562 -20.105469 "/></g></g></g><g fill="#000000" fill-opacity="1"><g transform="translate(84.476445, 321.336706)"><g><path d="M 5.328125 -3.097656 L 5.328125 -8.328125 L 12.097656 -8.328125 C 12.480469 -8.328125 12.671875 -8.648438 12.671875 -8.90625 L 12.671875 -10.851562 C 12.671875 -11.105469 12.480469 -11.425781 12.097656 -11.425781 L 5.328125 -11.425781 L 5.328125 -17.011719 L 13.597656 -17.011719 C 13.980469 -17.011719 14.171875 -17.332031 14.171875 -17.585938 L 14.171875 -19.53125 C 14.171875 -19.789062 13.980469 -20.105469 13.597656 -20.105469 L 2.808594 -20.105469 C 2.425781 -20.105469 2.234375 -19.789062 2.234375 -19.53125 L 2.234375 -0.574219 C 2.234375 -0.320312 2.425781 0 2.808594 0 L 13.597656 0 C 13.980469 0 14.171875 -0.320312 14.171875 -0.574219 L 14.171875 -2.519531 C 14.171875 -2.777344 13.980469 -3.097656 13.597656 -3.097656 Z M 5.328125 -3.097656 "/></g></g></g><g fill="#000000" fill-opacity="1"><g transform="translate(104.710539, 321.336706)"><g><path d="M 5.171875 -12.542969 C 5.171875 -16.277344 8.074219 -17.332031 10.5 -17.332031 C 11.617188 -17.332031 12.832031 -17.234375 14.011719 -16.980469 C 14.171875 -16.980469 14.363281 -17.042969 14.457031 -17.296875 L 14.746094 -19.308594 C 14.746094 -19.40625 14.679688 -19.660156 14.425781 -19.757812 C 12.988281 -20.105469 11.105469 -20.296875 9.832031 -20.296875 C 3.128906 -20.296875 2.074219 -15.351562 2.074219 -13.214844 L 2.074219 -6.894531 C 2.074219 -4.753906 3.128906 0.191406 9.832031 0.191406 C 11.105469 0.191406 12.988281 0 14.425781 -0.351562 C 14.679688 -0.445312 14.746094 -0.703125 14.746094 -0.796875 L 14.457031 -2.808594 C 14.363281 -3.0625 14.171875 -3.128906 14.011719 -3.128906 C 12.832031 -2.871094 11.617188 -2.777344 10.5 -2.777344 C 8.074219 -2.777344 5.171875 -3.828125 5.171875 -7.5625 Z M 5.171875 -12.542969 "/></g></g></g><g fill="#000000" fill-opacity="1"><g transform="translate(125.35952, 321.336706)"><g><path d="M 16.179688 -20.105469 L 14.234375 -20.105469 C 13.980469 -20.105469 13.660156 -19.914062 13.660156 -19.53125 L 13.660156 -10.40625 L 5.328125 -10.40625 L 5.328125 -19.53125 C 5.328125 -19.914062 5.011719 -20.105469 4.753906 -20.105469 L 2.808594 -20.105469 C 2.554688 -20.105469 2.234375 -19.914062 2.234375 -19.53125 L 2.234375 -0.574219 C 2.234375 -0.191406 2.554688 0 2.808594 0 L 4.753906 0 C 5.011719 0 5.328125 -0.191406 5.328125 -0.574219 L 5.328125 -7.308594 L 13.660156 -7.308594 L 13.660156 -0.574219 C 13.660156 -0.191406 13.980469 0 14.234375 0 L 16.179688 0 C 16.4375 0 16.757812 -0.191406 16.757812 -0.574219 L 16.757812 -19.53125 C 16.757812 -19.914062 16.4375 -20.105469 16.179688 -20.105469 Z M 16.179688 -20.105469 "/></g></g></g><g fill="#000000" fill-opacity="1"><g transform="translate(148.178643, 321.336706)"><g/></g></g><g fill="#000000" fill-opacity="1"><g transform="translate(158.359852, 321.336706)"><g><path d="M 2.425781 -1.148438 C 5.011719 0.128906 8.585938 0.191406 8.585938 0.191406 C 15.480469 0.191406 16.023438 -3.636719 16.023438 -5.328125 C 16.023438 -12.542969 4.851562 -10.628906 4.851562 -14.871094 C 4.851562 -16.882812 6.414062 -17.332031 9 -17.332031 C 10.214844 -17.332031 11.203125 -17.203125 12.160156 -17.011719 C 12.289062 -16.980469 12.640625 -16.914062 12.734375 -16.914062 C 12.957031 -16.914062 13.054688 -17.011719 13.148438 -17.171875 L 13.753906 -18.640625 C 13.789062 -18.734375 13.851562 -18.894531 13.851562 -19.023438 C 13.851562 -19.179688 13.820312 -19.339844 13.597656 -19.4375 C 12.03125 -20.105469 10.789062 -20.296875 8.554688 -20.296875 C 4.851562 -20.296875 1.753906 -18.703125 1.753906 -14.777344 C 1.753906 -8.011719 12.957031 -9.796875 12.957031 -5.296875 C 12.957031 -3.988281 12.640625 -2.777344 8.746094 -2.777344 C 7.308594 -2.777344 5.394531 -2.96875 3.671875 -3.765625 C 3.542969 -3.828125 3.445312 -3.863281 3.351562 -3.863281 C 3.128906 -3.863281 3.03125 -3.734375 2.9375 -3.574219 L 2.234375 -1.980469 C 2.171875 -1.820312 2.136719 -1.691406 2.136719 -1.597656 C 2.136719 -1.4375 2.203125 -1.277344 2.425781 -1.148438 Z M 2.425781 -1.148438 "/></g></g></g><g fill="#000000" fill-opacity="1"><g transform="translate(179.806678, 321.336706)"><g><path d="M 9.351562 -20.296875 C 1.945312 -20.296875 1.914062 -14.140625 1.914062 -12.796875 L 1.914062 -7.023438 C 1.914062 -5.839844 1.945312 0.191406 9.351562 0.191406 C 16.757812 0.191406 16.789062 -5.839844 16.789062 -7.023438 L 16.789062 -12.796875 C 16.789062 -14.140625 16.757812 -20.296875 9.351562 -20.296875 Z M 9.351562 -2.777344 C 8.042969 -2.777344 5.011719 -3.289062 5.011719 -7.277344 L 5.011719 -12.832031 C 5.011719 -16.820312 8.042969 -17.332031 9.351562 -17.332031 C 10.660156 -17.332031 13.691406 -16.820312 13.691406 -12.832031 L 13.691406 -7.277344 C 13.691406 -3.289062 10.660156 -2.777344 9.351562 -2.777344 Z M 9.351562 -2.777344 "/></g></g></g><g fill="#000000" fill-opacity="1"><g transform="translate(202.338567, 321.336706)"><g><path d="M 2.234375 -0.574219 C 2.234375 -0.320312 2.425781 0 2.808594 0 L 13.597656 0 C 13.980469 0 14.171875 -0.320312 14.171875 -0.574219 L 14.171875 -2.519531 C 14.171875 -2.777344 13.980469 -3.097656 13.597656 -3.097656 L 5.328125 -3.097656 L 5.328125 -19.53125 C 5.328125 -19.914062 5.011719 -20.105469 4.753906 -20.105469 L 2.808594 -20.105469 C 2.554688 -20.105469 2.234375 -19.914062 2.234375 -19.53125 Z M 2.234375 -0.574219 "/></g></g></g><g fill="#000000" fill-opacity="1"><g transform="translate(222.25353, 321.336706)"><g><path d="M 9.703125 0.191406 C 15.734375 0.191406 17.171875 -3.605469 17.171875 -6.894531 L 17.171875 -19.53125 C 17.171875 -19.914062 16.851562 -20.105469 16.597656 -20.105469 L 14.648438 -20.105469 C 14.394531 -20.105469 14.074219 -19.914062 14.074219 -19.53125 L 14.074219 -7.148438 C 14.074219 -3.160156 10.980469 -2.777344 9.703125 -2.777344 C 8.425781 -2.777344 5.328125 -3.160156 5.328125 -7.148438 L 5.328125 -19.53125 C 5.328125 -19.914062 5.011719 -20.105469 4.753906 -20.105469 L 2.808594 -20.105469 C 2.554688 -20.105469 2.234375 -19.914062 2.234375 -19.53125 L 2.234375 -6.894531 C 2.234375 -3.605469 3.671875 0.191406 9.703125 0.191406 Z M 9.703125 0.191406 "/></g></g></g><g fill="#000000" fill-opacity="1"><g transform="translate(245.487532, 321.336706)"><g><path d="M 1.851562 -20.105469 C 1.46875 -20.105469 1.277344 -19.789062 1.277344 -19.53125 L 1.277344 -17.585938 C 1.277344 -17.332031 1.46875 -17.011719 1.851562 -17.011719 L 6.574219 -17.011719 L 6.574219 -0.574219 C 6.574219 -0.191406 6.894531 0 7.148438 0 L 9.097656 0 C 9.351562 0 9.671875 -0.191406 9.671875 -0.574219 L 9.671875 -17.011719 L 14.394531 -17.011719 C 14.777344 -17.011719 14.96875 -17.332031 14.96875 -17.585938 L 14.96875 -19.53125 C 14.96875 -19.789062 14.777344 -20.105469 14.394531 -20.105469 Z M 1.851562 -20.105469 "/></g></g></g><g fill="#000000" fill-opacity="1"><g transform="translate(265.562051, 321.336706)"><g><path d="M 5.328125 -19.53125 C 5.328125 -19.882812 5.105469 -20.105469 4.753906 -20.105469 L 2.808594 -20.105469 C 2.457031 -20.105469 2.234375 -19.882812 2.234375 -19.53125 L 2.234375 -0.574219 C 2.234375 -0.222656 2.457031 0 2.808594 0 L 4.753906 0 C 5.105469 0 5.328125 -0.222656 5.328125 -0.574219 Z M 5.328125 -19.53125 "/></g></g></g><g fill="#000000" fill-opacity="1"><g transform="translate(276.955984, 321.336706)"><g><path d="M 9.351562 -20.296875 C 1.945312 -20.296875 1.914062 -14.140625 1.914062 -12.796875 L 1.914062 -7.023438 C 1.914062 -5.839844 1.945312 0.191406 9.351562 0.191406 C 16.757812 0.191406 16.789062 -5.839844 16.789062 -7.023438 L 16.789062 -12.796875 C 16.789062 -14.140625 16.757812 -20.296875 9.351562 -20.296875 Z M 9.351562 -2.777344 C 8.042969 -2.777344 5.011719 -3.289062 5.011719 -7.277344 L 5.011719 -12.832031 C 5.011719 -16.820312 8.042969 -17.332031 9.351562 -17.332031 C 10.660156 -17.332031 13.691406 -16.820312 13.691406 -12.832031 L 13.691406 -7.277344 C 13.691406 -3.289062 10.660156 -2.777344 9.351562 -2.777344 Z M 9.351562 -2.777344 "/></g></g></g><g fill="#000000" fill-opacity="1"><g transform="translate(299.487865, 321.336706)"><g><path d="M 14.296875 -0.574219 C 14.523438 -0.253906 14.871094 0 15.128906 0 L 17.074219 0 C 17.332031 0 17.648438 -0.191406 17.648438 -0.574219 L 17.648438 -19.53125 C 17.648438 -19.914062 17.332031 -20.105469 17.074219 -20.105469 L 15.128906 -20.105469 C 14.871094 -20.105469 14.554688 -19.914062 14.554688 -19.53125 L 14.554688 -5.746094 L 5.519531 -19.53125 C 5.296875 -19.851562 4.980469 -20.105469 4.722656 -20.105469 L 2.808594 -20.105469 C 2.554688 -20.105469 2.234375 -19.914062 2.234375 -19.53125 L 2.234375 -0.574219 C 2.234375 -0.191406 2.554688 0 2.808594 0 L 4.753906 0 C 5.011719 0 5.328125 -0.191406 5.328125 -0.574219 L 5.328125 -14.363281 Z M 14.296875 -0.574219 "/></g></g></g><g clip-path="url(#35769b7162)"><path fill="#00bf63" d="M 177.660156 117.511719 C 177.660156 109.617188 184.054688 103.261719 191.910156 103.261719 C 199.765625 103.261719 206.160156 109.660156 206.160156 117.511719 C 206.160156 128.199219 209.722656 131.761719 220.410156 131.761719 C 231.097656 131.761719 234.660156 128.199219 234.660156 117.511719 C 234.660156 109.617188 241.054688 103.261719 248.910156 103.261719 C 256.765625 103.261719 263.160156 109.660156 263.160156 117.511719 C 263.160156 125.410156 256.765625 131.761719 248.910156 131.761719 C 238.222656 131.761719 234.660156 135.324219 234.660156 146.011719 C 234.660156 153.910156 228.265625 160.261719 220.410156 160.261719 C 212.554688 160.261719 206.160156 153.867188 206.160156 146.011719 C 206.160156 135.324219 202.597656 131.761719 191.910156 131.761719 C 190.976562 131.765625 190.046875 131.675781 189.128906 131.496094 C 188.210938 131.316406 187.316406 131.046875 186.453125 130.6875 C 185.585938 130.332031 184.765625 129.890625 183.984375 129.371094 C 183.207031 128.851562 182.488281 128.261719 181.824219 127.601562 C 181.164062 126.9375 180.570312 126.21875 180.050781 125.4375 C 179.53125 124.660156 179.09375 123.835938 178.738281 122.972656 C 178.378906 122.105469 178.109375 121.214844 177.929688 120.296875 C 177.75 119.378906 177.660156 118.449219 177.660156 117.511719 Z M 177.660156 117.511719 " fill-opacity="1" fill-rule="nonzero"/></g><g clip-path="url(#13290a858a)"><path fill="#00bf63" d="M 263.246094 88.972656 C 263.246094 88.035156 263.339844 87.109375 263.519531 86.191406 C 263.703125 85.273438 263.972656 84.382812 264.332031 83.515625 C 264.691406 82.652344 265.128906 81.832031 265.648438 81.054688 C 266.167969 80.277344 266.757812 79.554688 267.421875 78.894531 C 268.082031 78.234375 268.800781 77.640625 269.582031 77.121094 C 270.359375 76.601562 271.179688 76.164062 272.042969 75.804688 C 272.90625 75.449219 273.800781 75.175781 274.71875 74.996094 C 275.632812 74.8125 276.5625 74.722656 277.496094 74.722656 C 278.433594 74.722656 279.359375 74.8125 280.277344 74.996094 C 281.195312 75.175781 282.085938 75.449219 282.949219 75.804688 C 283.816406 76.164062 284.636719 76.601562 285.414062 77.121094 C 286.191406 77.640625 286.910156 78.234375 287.574219 78.894531 C 288.234375 79.554688 288.824219 80.277344 289.34375 81.054688 C 289.863281 81.832031 290.304688 82.652344 290.664062 83.515625 C 291.019531 84.382812 291.289062 85.273438 291.472656 86.191406 C 291.65625 87.109375 291.746094 88.035156 291.746094 88.972656 C 291.746094 89.90625 291.65625 90.832031 291.472656 91.75 C 291.289062 92.667969 291.019531 93.558594 290.664062 94.425781 C 290.304688 95.289062 289.863281 96.109375 289.34375 96.886719 C 288.824219 97.664062 288.234375 98.386719 287.574219 99.046875 C 286.910156 99.707031 286.191406 100.300781 285.414062 100.820312 C 284.636719 101.339844 283.816406 101.777344 282.949219 102.136719 C 282.085938 102.492188 281.195312 102.765625 280.277344 102.945312 C 279.359375 103.128906 278.433594 103.222656 277.496094 103.222656 C 276.5625 103.222656 275.632812 103.128906 274.71875 102.945312 C 273.800781 102.765625 272.90625 102.492188 272.042969 102.136719 C 271.179688 101.777344 270.359375 101.339844 269.582031 100.820312 C 268.800781 100.300781 268.082031 99.707031 267.421875 99.046875 C 266.757812 98.386719 266.167969 97.664062 265.648438 96.886719 C 265.128906 96.109375 264.691406 95.289062 264.332031 94.425781 C 263.972656 93.558594 263.703125 92.667969 263.519531 91.75 C 263.339844 90.832031 263.246094 89.90625 263.246094 88.972656 Z M 263.246094 88.972656 " fill-opacity="1" fill-rule="nonzero"/></g><g clip-path="url(#ae1f6181eb)"><path fill="#00bf63" d="M 92.03125 146.054688 C 92.03125 138.160156 98.429688 131.804688 106.28125 131.804688 C 116.96875 131.804688 120.53125 128.242188 120.53125 117.554688 C 120.53125 109.660156 126.929688 103.304688 134.78125 103.304688 C 145.46875 103.304688 149.03125 99.742188 149.03125 89.054688 C 149.03125 81.160156 155.429688 74.804688 163.28125 74.804688 C 171.136719 74.804688 177.53125 81.203125 177.53125 89.054688 C 177.53125 96.953125 171.136719 103.304688 163.28125 103.304688 C 152.59375 103.304688 149.03125 106.867188 149.03125 117.554688 C 149.03125 125.453125 142.636719 131.804688 134.78125 131.804688 C 124.09375 131.804688 120.53125 135.367188 120.53125 146.054688 C 120.53125 153.953125 114.136719 160.304688 106.28125 160.304688 C 98.429688 160.304688 92.03125 153.910156 92.03125 146.054688 Z M 92.03125 146.054688 " fill-opacity="1" fill-rule="nonzero"/></g></svg>